<?xml version="1.0" encoding="utf-8"?>
<!-- Generator: Adobe Illustrator 19.1.0, SVG Export Plug-In . SVG Version: 6.00 Build 0)  -->
<svg version="1.1" id="Layer_1" xmlns="http://www.w3.org/2000/svg" xmlns:xlink="http://www.w3.org/1999/xlink" x="0px" y="0px"
	 viewBox="0 0 155 55" style="enable-background:new 0 0 155 55;" xml:space="preserve">
<style type="text/css">
	.st0{fill:url(#SVGID_1_);stroke:#939598;stroke-width:0.3;stroke-miterlimit:10;}
	.st1{fill:#FFFFFF;}
	.st2{fill:#FF0000;}
</style>
<g>
	
		<linearGradient id="SVGID_1_" gradientUnits="userSpaceOnUse" x1="77.5" y1="-16331.5" x2="77.5" y2="-16381.5" gradientTransform="matrix(1 0 0 -1 0 -16329)">
		<stop  offset="0" style="stop-color:#636363"/>
		<stop  offset="9.666514e-002" style="stop-color:#494949"/>
		<stop  offset="0.2236" style="stop-color:#2F2F2F"/>
		<stop  offset="0.3628" style="stop-color:#1A1A1A"/>
		<stop  offset="0.5188" style="stop-color:#0B0B0B"/>
		<stop  offset="0.7049" style="stop-color:#030303"/>
		<stop  offset="1" style="stop-color:#000000"/>
	</linearGradient>
	<path class="st0" d="M147.5,52.5H7.5c-2.8,0-5-2.2-5-5v-40c0-2.8,2.2-5,5-5h140c2.8,0,5,2.2,5,5v40
		C152.5,50.3,150.3,52.5,147.5,52.5z"/>
	<g>
		<g>
			<path class="st1" d="M87.4,17.5h4.5v16.2h8v3.8H87.4V17.5z"/>
			<path class="st1" d="M107.1,17.5v20h-4.5v-20H107.1z"/>
			<path class="st1" d="M115.7,37.5l-6.4-20h5l2.4,8.5c0.7,2.4,1.3,4.7,1.8,7.2h0.1c0.5-2.4,1.1-4.8,1.8-7.1l2.6-8.5h4.8l-6.7,20
				H115.7z"/>
			<path class="st1" d="M141.8,29h-7.4v4.7h8.2v3.7h-12.8v-20h12.3v3.7h-7.8v4.2h7.4V29z"/>
		</g>
		<g>
			<path class="st2" d="M70,10.9c-2.2-2.4-6.2-3.4-13.8-3.4H28.5c-7.8,0-11.9,1.1-14,3.7c-2.1,2.5-2.1,6.3-2.1,11.4v9.8
				c0,10,2.5,15.1,16.1,15.1h27.7c6.6,0,10.3-0.9,12.7-3c2.4-2.2,3.5-5.8,3.5-12.1v-9.8C72.4,17.1,72.2,13.4,70,10.9z"/>
			<path class="st1" d="M50.4,25.6l-11.9-6.2c-0.6-0.3-1.2-0.3-1.8,0.1c-0.5,0.3-0.9,0.9-0.9,1.6v12.4c0,0.6,0.3,1.2,0.9,1.6
				c0.3,0.2,0.6,0.3,0.9,0.3c0.3,0,0.6-0.1,0.8-0.2l11.9-6.2c0.6-0.3,1-0.9,1-1.6C51.4,26.5,51,25.9,50.4,25.6z"/>
		</g>
	</g>
</g>
</svg>
